<?xml version="1.0" standalone="no"?>
<!DOCTYPE svg PUBLIC "-//W3C//DTD SVG 20010904//EN"
 "http://www.w3.org/TR/2001/REC-SVG-20010904/DTD/svg10.dtd">
<svg version="1.0" xmlns="http://www.w3.org/2000/svg"
 width="300.000000pt" height="248.000000pt" viewBox="0 0 300.000000 248.000000"
 preserveAspectRatio="xMidYMid meet">
<metadata>
Created by potrace 1.10, written by Peter Selinger 2001-2011
</metadata>
<g transform="translate(0.000000,248.000000) scale(0.100000,-0.100000)"
fill="#000000" stroke="none">
<path d="M2440 2133 c-141 -23 -423 -113 -643 -205 -342 -145 -642 -333 -824
-518 -46 -46 -83 -88 -83 -92 0 -4 -4 -8 -10 -8 -5 0 -10 12 -11 28 0 15 -6
45 -14 67 l-13 40 -1 -41 c-2 -94 -37 -214 -61 -214 -6 0 -23 18 -38 40 -15
21 -30 39 -35 40 -10 0 20 -70 40 -92 20 -22 14 -23 -23 -3 -16 8 -51 14 -79
14 l-50 -1 38 -9 c43 -10 117 -46 117 -57 0 -4 -17 -18 -38 -31 -50 -32 -452
-332 -452 -337 0 -2 9 -4 20 -4 10 0 45 21 77 47 32 25 64 51 72 57 7 6 4 -5
-8 -24 -24 -40 -27 -60 -7 -60 7 0 16 13 19 29 15 75 144 153 263 159 105 6
161 -29 171 -107 7 -55 -34 -139 -90 -184 -49 -40 -136 -91 -142 -85 -3 3 -20
56 -39 119 -42 141 -53 169 -66 169 -16 0 -12 -19 35 -160 51 -152 48 -140 36
-140 -5 0 -12 14 -16 30 -7 30 -25 42 -25 17 0 -15 48 -158 75 -225 16 -39 37
-53 49 -34 5 8 -28 155 -39 172 -3 5 -2 11 2 13 11 6 141 -10 232 -29 46 -9
78 -11 84 -5 12 12 -116 41 -215 48 -43 3 -78 9 -78 12 0 4 19 16 42 28 61 29
143 106 167 156 41 84 18 179 -49 208 -24 11 -30 19 -26 34 3 11 6 34 6 52 l0
32 43 -28 c72 -48 129 -64 205 -59 80 6 130 25 65 25 -21 0 -53 8 -70 16 -26
14 -33 14 -43 2 -10 -12 -17 -12 -53 1 -49 17 -87 41 -87 53 0 12 111 91 127
91 6 0 13 3 15 8 7 16 375 260 523 347 55 32 116 68 135 80 108 67 165 97 359
193 118 57 226 105 240 105 25 0 26 0 4 10 -28 12 -79 -7 -318 -124 -250 -121
-634 -351 -931 -556 -39 -26 -109 -75 -155 -107 l-86 -59 5 -46 4 -46 -68 -1
c-43 -1 -90 -10 -123 -22 -29 -12 -50 -18 -47 -15 54 54 667 466 913 614 214
129 566 310 696 359 67 26 87 38 87 52 0 17 -2 18 -15 5 -8 -9 -38 -23 -67
-32 -29 -10 -77 -28 -106 -41 -29 -13 -55 -24 -57 -24 -7 0 -272 -132 -340
-169 -33 -19 -85 -47 -115 -64 -30 -16 -71 -40 -90 -52 -19 -13 -84 -53 -145
-90 -60 -38 -190 -122 -289 -187 -98 -66 -180 -117 -183 -114 -13 12 21 78 45
89 15 6 45 29 67 52 176 182 404 340 687 474 58 28 113 51 121 51 8 0 17 7 21
15 3 8 12 15 20 15 8 0 52 16 97 35 104 45 311 115 338 115 12 0 21 4 21 8 0
9 121 37 205 48 67 8 95 -13 102 -78 4 -37 0 -55 -22 -96 -35 -64 -82 -115
-97 -106 -7 4 -8 3 -4 -4 17 -27 -248 -171 -354 -193 -112 -22 -109 -21 -70
-30 50 -12 120 5 228 56 235 112 364 250 349 376 -11 93 -51 119 -157 102z
m-1806 -1639 c10 -31 15 -58 12 -61 -6 -6 -6 -5 -31 66 -17 51 -18 51 -7 51 5
0 16 -25 26 -56z"/>
<path d="M1990 1572 c20 -17 22 -23 12 -35 -26 -31 -84 -52 -177 -63 -62 -7
-67 -11 -20 -20 73 -13 130 0 215 52 44 26 80 51 80 55 0 3 -21 9 -47 12 -27
3 -57 9 -68 12 -17 6 -16 3 5 -13z"/>
<path d="M1765 1429 c5 -13 -4 -18 -45 -23 -33 -4 -48 -11 -44 -18 9 -14 139
-5 181 14 l33 14 -65 15 c-60 14 -65 14 -60 -2z"/>
<path d="M1666 1353 c10 -38 -217 -154 -338 -174 -45 -8 -85 -7 -143 2 -44 6
-95 12 -114 14 -30 1 -32 0 -15 -12 54 -39 207 -53 317 -29 81 18 204 76 310
146 71 47 81 60 45 60 -13 0 -33 3 -45 6 -17 5 -21 2 -17 -13z"/>
<path d="M1030 1162 c0 -4 16 -23 35 -42 33 -32 44 -51 28 -49 -5 1 -21 1 -37
0 -22 -1 -27 -4 -19 -12 19 -19 152 -16 216 5 32 10 59 22 61 25 2 3 -18 4
-46 2 -71 -5 -107 5 -173 44 -62 38 -65 39 -65 27z"/>
<path d="M1856 1014 c-9 -8 -19 -27 -22 -42 -11 -49 -13 -52 -48 -52 -26 0
-39 -7 -55 -27 -19 -26 -20 -26 -21 -7 0 12 12 33 26 48 26 25 26 26 5 26 -13
0 -28 -12 -41 -32 -30 -51 -40 -59 -63 -52 -16 5 -27 -1 -48 -27 -16 -19 -29
-28 -29 -21 0 20 28 70 42 75 7 2 9 8 5 13 -13 14 -41 -10 -68 -61 -28 -54
-49 -68 -49 -35 0 12 -5 30 -11 41 -13 26 -34 11 -43 -31 -7 -40 -35 -39 -42
0 -8 36 -24 30 -24 -9 0 -16 -9 -39 -19 -52 -21 -26 -23 -24 -36 34 -8 37 -27
30 -41 -14 -13 -39 -37 -45 -42 -11 -5 34 -30 27 -34 -10 -3 -30 -6 -33 -41
-36 -29 -3 -40 -9 -52 -33 -18 -34 -25 -37 -25 -9 0 12 12 32 26 47 27 27 26
38 -4 29 -10 -4 -27 -23 -38 -44 -17 -31 -25 -37 -52 -37 -29 -1 -61 -25 -62
-47 0 -5 -5 -8 -11 -8 -15 0 -1 41 24 68 16 17 17 22 5 22 -32 0 -75 -80 -61
-116 8 -22 23 -17 57 20 36 38 81 54 90 31 9 -25 33 -17 62 20 14 19 29 33 33
30 4 -2 20 3 36 11 15 8 36 12 46 9 11 -4 26 2 38 14 27 27 28 27 35 -12 4
-21 -1 -51 -15 -87 -26 -68 -37 -203 -19 -225 7 -8 23 -15 36 -15 50 0 68 103
43 246 -10 58 -9 64 13 98 16 25 28 34 40 30 10 -3 25 3 35 15 10 12 21 21 25
21 13 0 9 -74 -6 -116 -44 -127 -40 -244 9 -244 56 0 75 73 55 216 -13 101 -6
136 28 127 12 -3 27 6 43 25 32 37 76 50 93 26 16 -21 46 -7 66 30 9 18 22 26
41 26 15 0 31 5 35 11 3 6 14 9 24 6 11 -3 27 1 38 9 11 7 22 10 26 7 12 -12
6 -100 -9 -144 -17 -47 -22 -131 -11 -166 17 -52 71 -26 81 40 4 23 1 80 -5
125 l-11 83 35 65 c21 38 31 64 23 64 -6 0 -22 -18 -35 -40 -25 -45 -42 -44
-42 1 0 36 -22 38 -44 4 -9 -14 -21 -25 -26 -25 -15 0 -12 34 5 56 26 34 11
49 -19 18z m94 -301 c0 -63 -6 -93 -20 -93 -15 0 -20 65 -9 123 15 72 29 58
29 -30z m-453 -161 c-5 -67 -21 -99 -33 -68 -9 22 1 180 12 197 13 22 26 -58
21 -129z m-169 -32 c-3 -86 -10 -111 -25 -96 -10 10 -9 152 1 191 14 55 28 1
24 -95z"/>
</g>
</svg>
